<svg width="512" height="98" viewBox="0 0 512 98" fill="none" xmlns="http://www.w3.org/2000/svg">
<rect width="512" height="98" fill="white"/>
<rect x="183" y="69" width="10" height="50" rx="5" transform="rotate(-90 183 69)" fill="url(#paint0_linear_30_151)"/>
<rect x="196" y="54" width="10" height="37" rx="5" transform="rotate(-90 196 54)" fill="url(#paint1_linear_30_151)"/>
<rect x="208" y="39" width="10" height="25" rx="5" transform="rotate(-90 208 39)" fill="url(#paint2_linear_30_151)"/>
<path d="M240.392 36.8H242.228V60.344H256.736V62H240.392V36.8ZM276.434 53.036H260.27C260.318 54.5 260.69 55.808 261.386 56.96C262.082 58.088 263.018 58.964 264.194 59.588C265.394 60.212 266.738 60.524 268.226 60.524C269.45 60.524 270.578 60.308 271.61 59.876C272.666 59.42 273.542 58.76 274.238 57.896L275.282 59.084C274.466 60.068 273.434 60.824 272.186 61.352C270.962 61.88 269.63 62.144 268.19 62.144C266.318 62.144 264.65 61.736 263.186 60.92C261.722 60.104 260.57 58.976 259.73 57.536C258.914 56.096 258.506 54.452 258.506 52.604C258.506 50.78 258.89 49.148 259.658 47.708C260.45 46.244 261.53 45.104 262.898 44.288C264.266 43.472 265.802 43.064 267.506 43.064C269.21 43.064 270.734 43.472 272.078 44.288C273.446 45.08 274.514 46.196 275.282 47.636C276.074 49.076 276.47 50.708 276.47 52.532L276.434 53.036ZM267.506 44.648C266.186 44.648 264.998 44.948 263.942 45.548C262.886 46.124 262.034 46.952 261.386 48.032C260.762 49.088 260.402 50.288 260.306 51.632H274.706C274.634 50.288 274.274 49.088 273.626 48.032C272.978 46.976 272.126 46.148 271.07 45.548C270.014 44.948 268.826 44.648 267.506 44.648ZM296.771 43.208L288.275 62H286.439L277.979 43.208H279.887L287.375 60.02L294.935 43.208H296.771ZM316.055 53.036H299.891C299.939 54.5 300.311 55.808 301.007 56.96C301.703 58.088 302.639 58.964 303.815 59.588C305.015 60.212 306.359 60.524 307.847 60.524C309.071 60.524 310.199 60.308 311.231 59.876C312.287 59.42 313.163 58.76 313.859 57.896L314.903 59.084C314.087 60.068 313.055 60.824 311.807 61.352C310.583 61.88 309.251 62.144 307.811 62.144C305.939 62.144 304.271 61.736 302.807 60.92C301.343 60.104 300.191 58.976 299.351 57.536C298.535 56.096 298.127 54.452 298.127 52.604C298.127 50.78 298.511 49.148 299.279 47.708C300.071 46.244 301.151 45.104 302.519 44.288C303.887 43.472 305.423 43.064 307.127 43.064C308.831 43.064 310.355 43.472 311.699 44.288C313.067 45.08 314.135 46.196 314.903 47.636C315.695 49.076 316.091 50.708 316.091 52.532L316.055 53.036ZM307.127 44.648C305.807 44.648 304.619 44.948 303.563 45.548C302.507 46.124 301.655 46.952 301.007 48.032C300.383 49.088 300.023 50.288 299.927 51.632H314.327C314.255 50.288 313.895 49.088 313.247 48.032C312.599 46.976 311.747 46.148 310.691 45.548C309.635 44.948 308.447 44.648 307.127 44.648ZM321.66 35.288H323.46V62H321.66V35.288Z" fill="url(#paint3_linear_30_151)"/>
<defs>
<linearGradient id="paint0_linear_30_151" x1="188.004" y1="69" x2="188.004" y2="118.995" gradientUnits="userSpaceOnUse">
<stop stop-color="#2B9348"/>
<stop offset="1" stop-color="#5FC076"/>
</linearGradient>
<linearGradient id="paint1_linear_30_151" x1="201.004" y1="54" x2="201.004" y2="90.9962" gradientUnits="userSpaceOnUse">
<stop stop-color="#2B9348"/>
<stop offset="1" stop-color="#5FC076"/>
</linearGradient>
<linearGradient id="paint2_linear_30_151" x1="213.004" y1="39" x2="213.004" y2="63.9974" gradientUnits="userSpaceOnUse">
<stop stop-color="#2B9348"/>
<stop offset="1" stop-color="#5FC076"/>
</linearGradient>
<linearGradient id="paint3_linear_30_151" x1="282.037" y1="27" x2="282.037" y2="70.9954" gradientUnits="userSpaceOnUse">
<stop stop-color="#2B9348"/>
<stop offset="1" stop-color="#5FC076"/>
</linearGradient>
</defs>
</svg>
