<svg width="715" height="715" viewBox="0 0 715 715" fill="none" xmlns="http://www.w3.org/2000/svg">
<rect width="715" height="715" rx="10" fill="#F25F5C"/>
<path d="M107.139 448V422.964L195.474 301.871H107.228V266.182H251.049V291.217L162.714 412.311H250.96V448H107.139ZM317.256 448H270.025L331.371 266.182H389.876L451.222 448H403.992L361.29 311.991H359.869L317.256 448ZM310.952 376.445H409.674V409.825H310.952V376.445ZM470.798 448V266.182H545.904C559.517 266.182 571.265 268.845 581.149 274.172C591.093 279.439 598.757 286.808 604.143 296.278C609.529 305.688 612.222 316.638 612.222 329.126C612.222 341.673 609.47 352.652 603.965 362.062C598.52 371.414 590.737 378.664 580.617 383.813C570.496 388.962 558.481 391.537 544.573 391.537H498.23V356.913H536.405C543.034 356.913 548.568 355.759 553.007 353.451C557.505 351.143 560.908 347.917 563.216 343.774C565.524 339.572 566.678 334.689 566.678 329.126C566.678 323.503 565.524 318.65 563.216 314.566C560.908 310.423 557.505 307.227 553.007 304.978C548.508 302.729 542.975 301.604 536.405 301.604H514.743V448H470.798Z" fill="white"/>
</svg>
