<svg width="24" height="24" viewBox="0 0 24 24" fill="none" xmlns="http://www.w3.org/2000/svg">
<path fill-rule="evenodd" clip-rule="evenodd" d="M5 12.5C5 11.1193 6.11929 10 7.5 10H11C11.2761 10 11.5 9.77614 11.5 9.5C11.5 9.22386 11.2761 9 11 9H7.5C5.567 9 4 10.567 4 12.5C4 14.433 5.567 16 7.5 16H11C11.2761 16 11.5 15.7761 11.5 15.5C11.5 15.2239 11.2761 15 11 15H7.5C6.11929 15 5 13.8807 5 12.5ZM13 9C12.7239 9 12.5 9.22386 12.5 9.5C12.5 9.77614 12.7239 10 13 10H16.5C17.8807 10 19 11.1193 19 12.5C19 13.8807 17.8807 15 16.5 15H16H15H13C12.7239 15 12.5 15.2239 12.5 15.5C12.5 15.7761 12.7239 16 13 16H15H16H16.5C18.433 16 20 14.433 20 12.5C20 10.567 18.433 9 16.5 9H13ZM7.5 12.5C7.5 11.9477 7.94771 11.5 8.5 11.5H15.5C16.0523 11.5 16.5 11.9477 16.5 12.5C16.5 13.0523 16.0523 13.5 15.5 13.5H8.5C7.94771 13.5 7.5 13.0523 7.5 12.5Z" fill="black"/>
</svg>
